<svg xmlns="http://www.w3.org/2000/svg" width="26.026" height="26.026" viewBox="0 0 26.026 26.026"><path d="M26.282,8.48a12.924,12.924,0,0,0-4.738-4.737A12.747,12.747,0,0,0,15.013,2,12.755,12.755,0,0,0,8.48,3.744,12.92,12.92,0,0,0,3.744,8.48,12.752,12.752,0,0,0,2,15.013a12.739,12.739,0,0,0,1.744,6.532,12.914,12.914,0,0,0,4.738,4.737,12.747,12.747,0,0,0,6.531,1.744,12.755,12.755,0,0,0,6.532-1.744,12.924,12.924,0,0,0,4.738-4.737,12.75,12.75,0,0,0,1.742-6.532A12.739,12.739,0,0,0,26.282,8.48ZM15.013,4.16a10.559,10.559,0,0,1,6.923,2.5A12.948,12.948,0,0,1,16.6,10.431a27.766,27.766,0,0,0-4.244-5.908A10.04,10.04,0,0,1,15.013,4.16ZM6.568,8.246A10.562,10.562,0,0,1,10.1,5.357a26.506,26.506,0,0,1,4.346,5.856A28.57,28.57,0,0,1,6.19,12.384q-1.118,0-1.692-.052A11.124,11.124,0,0,1,6.568,8.246ZM4.16,15.013c0-.07,0-.156.013-.26s.013-.19.013-.26c.331.018.834.026,1.511.026a31.629,31.629,0,0,0,9.68-1.431q.365.728.755,1.64a12.929,12.929,0,0,0-5.285,2.785A14.9,14.9,0,0,0,6.893,22.17,10.494,10.494,0,0,1,4.16,15.013ZM15.013,25.866a10.534,10.534,0,0,1-6.638-2.289,14.765,14.765,0,0,1,3.606-4.426,11.1,11.1,0,0,1,4.828-2.629,38.312,38.312,0,0,1,2.03,8.615A10.627,10.627,0,0,1,15.013,25.866Zm9.213-5.153a10.867,10.867,0,0,1-3.357,3.411,37.457,37.457,0,0,0-1.794-7.913q1.819-.129,3.253-.13,1.56,0,3.46.13A10.538,10.538,0,0,1,24.226,20.713Zm-1.614-6.506q-2.264,0-4.19.182-.5-1.275-.885-2.108a12.868,12.868,0,0,0,5.724-4.294,10.447,10.447,0,0,1,2.551,6.3Q24.227,14.206,22.612,14.206Z" transform="translate(-2 -2)"/></svg>