<svg xmlns="http://www.w3.org/2000/svg" width="20.805" height="20.805" viewBox="0 0 20.805 20.805"><path d="M21.411,7.18a10.331,10.331,0,0,0-3.788-3.786A10.19,10.19,0,0,0,12.4,2,10.2,10.2,0,0,0,7.18,3.394,10.329,10.329,0,0,0,3.394,7.18,10.194,10.194,0,0,0,2,12.4a10.183,10.183,0,0,0,1.394,5.222,10.324,10.324,0,0,0,3.788,3.786A10.19,10.19,0,0,0,12.4,22.8a10.2,10.2,0,0,0,5.222-1.394,10.331,10.331,0,0,0,3.788-3.786A10.193,10.193,0,0,0,22.8,12.4,10.183,10.183,0,0,0,21.411,7.18ZM12.4,3.727a8.441,8.441,0,0,1,5.534,2A10.35,10.35,0,0,1,13.672,8.74a22.2,22.2,0,0,0-3.392-4.723A8.026,8.026,0,0,1,12.4,3.727ZM5.651,6.993a8.443,8.443,0,0,1,2.82-2.309,21.188,21.188,0,0,1,3.474,4.681,22.838,22.838,0,0,1-6.6.936Q4.456,10.3,4,10.26A8.893,8.893,0,0,1,5.651,6.993ZM3.727,12.4c0-.056,0-.125.01-.208s.01-.152.01-.208c.264.015.667.021,1.208.021a25.284,25.284,0,0,0,7.738-1.144q.292.582.6,1.311A10.335,10.335,0,0,0,9.073,14.4a11.908,11.908,0,0,0-3.161,3.724A8.389,8.389,0,0,1,3.727,12.4ZM12.4,21.078A8.421,8.421,0,0,1,7.1,19.248,11.8,11.8,0,0,1,9.979,15.71a8.871,8.871,0,0,1,3.859-2.1A30.626,30.626,0,0,1,15.461,20.5,8.5,8.5,0,0,1,12.4,21.078Zm7.365-4.119a8.687,8.687,0,0,1-2.684,2.726,29.943,29.943,0,0,0-1.434-6.326q1.454-.1,2.6-.1,1.247,0,2.766.1A8.424,8.424,0,0,1,19.767,16.959Zm-1.29-5.2q-1.81,0-3.35.146-.4-1.019-.707-1.685A10.287,10.287,0,0,0,19,6.785a8.351,8.351,0,0,1,2.039,5.035Q19.768,11.758,18.477,11.758Z" transform="translate(-2 -2)"/></svg>