<svg xmlns="http://www.w3.org/2000/svg" width="33.804" height="33.804" viewBox="0 0 33.804 33.804"><path d="M33.539,10.417a16.787,16.787,0,0,0-6.154-6.152A16.557,16.557,0,0,0,18.9,2a16.567,16.567,0,0,0-8.485,2.265,16.782,16.782,0,0,0-6.152,6.152A16.563,16.563,0,0,0,2,18.9a16.546,16.546,0,0,0,2.265,8.485,16.774,16.774,0,0,0,6.154,6.152A16.557,16.557,0,0,0,18.9,35.8a16.567,16.567,0,0,0,8.485-2.265,16.787,16.787,0,0,0,6.154-6.152A16.561,16.561,0,0,0,35.8,18.9,16.546,16.546,0,0,0,33.539,10.417ZM18.9,4.806a13.715,13.715,0,0,1,8.992,3.244,16.818,16.818,0,0,1-6.93,4.9,36.065,36.065,0,0,0-5.512-7.674A13.04,13.04,0,0,1,18.9,4.806ZM7.933,10.113a13.719,13.719,0,0,1,4.582-3.752,34.428,34.428,0,0,1,5.645,7.606A37.109,37.109,0,0,1,7.443,15.488q-1.453,0-2.2-.068A14.449,14.449,0,0,1,7.933,10.113ZM4.806,18.9c0-.091.005-.2.017-.338s.017-.247.017-.338c.429.024,1.083.034,1.962.034A41.082,41.082,0,0,0,19.375,16.4q.474.946.98,2.13a16.793,16.793,0,0,0-6.864,3.617A19.349,19.349,0,0,0,8.355,28.2,13.631,13.631,0,0,1,4.806,18.9ZM18.9,33a13.682,13.682,0,0,1-8.622-2.973,19.178,19.178,0,0,1,4.684-5.748,14.414,14.414,0,0,1,6.271-3.414,49.763,49.763,0,0,1,2.637,11.189A13.8,13.8,0,0,1,18.9,33Zm11.967-6.693a14.115,14.115,0,0,1-4.361,4.43,48.652,48.652,0,0,0-2.331-10.278q2.363-.167,4.226-.169,2.026,0,4.494.169A13.687,13.687,0,0,1,30.869,26.305Zm-2.1-8.451q-2.941,0-5.443.237-.644-1.656-1.149-2.738,5.238-2.3,7.435-5.578a13.569,13.569,0,0,1,3.313,8.181Q30.871,17.854,28.773,17.854Z" transform="translate(-2 -2)"/></svg>