<svg xmlns="http://www.w3.org/2000/svg" width="20.751" height="20.239" viewBox="0 0 20.751 20.239"><defs><style>.a{fill-rule:evenodd;}</style></defs><path class="a" d="M12.427,2a10.377,10.377,0,0,0-3.28,20.221c.519.094.706-.226.706-.5,0-.247-.008-.9-.011-1.764-2.887.626-3.5-1.392-3.5-1.392a2.741,2.741,0,0,0-1.152-1.518c-.941-.644.072-.629.072-.629a2.173,2.173,0,0,1,1.588,1.069,2.209,2.209,0,0,0,3.019.862,2.224,2.224,0,0,1,.661-1.388c-2.3-.261-4.725-1.152-4.725-5.128A4.02,4.02,0,0,1,6.875,9.051a3.732,3.732,0,0,1,.1-2.746s.871-.28,2.852,1.062a9.819,9.819,0,0,1,5.193,0C17.006,6.024,17.875,6.3,17.875,6.3a3.715,3.715,0,0,1,.1,2.746,4,4,0,0,1,1.065,2.783c0,3.987-2.424,4.863-4.735,5.12a2.486,2.486,0,0,1,.7,1.92c0,1.388-.012,2.507-.012,2.847,0,.278.185.6.715.5A10.377,10.377,0,0,0,12.427,2Z" transform="translate(-2.052 -2)"/></svg>