<svg xmlns="http://www.w3.org/2000/svg" width="25.958" height="25.317" viewBox="0 0 25.958 25.317"><defs><style>.a{fill-rule:evenodd;}</style></defs><path class="a" d="M15.031,2a12.981,12.981,0,0,0-4.1,25.3c.649.117.884-.282.884-.626,0-.308-.01-1.126-.014-2.207-3.611.783-4.374-1.741-4.374-1.741a3.429,3.429,0,0,0-1.441-1.9c-1.178-.806.09-.787.09-.787A2.718,2.718,0,0,1,8.06,21.374a2.764,2.764,0,0,0,3.776,1.079,2.782,2.782,0,0,1,.826-1.736c-2.881-.327-5.91-1.441-5.91-6.415A5.029,5.029,0,0,1,8.085,10.82a4.669,4.669,0,0,1,.129-3.435s1.089-.35,3.568,1.329a12.283,12.283,0,0,1,6.5,0c2.48-1.68,3.568-1.329,3.568-1.329a4.647,4.647,0,0,1,.129,3.435A5,5,0,0,1,23.307,14.3c0,4.988-3.032,6.084-5.923,6.4a3.11,3.11,0,0,1,.878,2.4c0,1.736-.016,3.136-.016,3.562,0,.347.232.751.894.623A12.981,12.981,0,0,0,15.031,2Z" transform="translate(-2.052 -2)"/></svg>