<svg xmlns="http://www.w3.org/2000/svg" width="33.716" height="32.884" viewBox="0 0 33.716 32.884"><defs><style>.a{fill-rule:evenodd;}</style></defs><path class="a" d="M18.91,2a16.861,16.861,0,0,0-5.329,32.856c.843.152,1.148-.367,1.148-.813,0-.4-.014-1.462-.019-2.867-4.69,1.018-5.681-2.262-5.681-2.262a4.454,4.454,0,0,0-1.871-2.466c-1.53-1.046.117-1.023.117-1.023a3.53,3.53,0,0,1,2.581,1.738,3.59,3.59,0,0,0,4.905,1.4,3.614,3.614,0,0,1,1.073-2.255c-3.742-.424-7.677-1.871-7.677-8.333a6.532,6.532,0,0,1,1.731-4.521,6.064,6.064,0,0,1,.167-4.462s1.415-.455,4.635,1.726a15.954,15.954,0,0,1,8.438,0c3.222-2.182,4.635-1.726,4.635-1.726a6.036,6.036,0,0,1,.167,4.462,6.491,6.491,0,0,1,1.731,4.521c0,6.479-3.938,7.9-7.694,8.319a4.039,4.039,0,0,1,1.141,3.12c0,2.255-.02,4.073-.02,4.626,0,.451.3.975,1.161.81A16.86,16.86,0,0,0,18.91,2Z" transform="translate(-2.052 -2)"/></svg>