<svg xmlns="http://www.w3.org/2000/svg" width="23.434" height="23.47" viewBox="0 0 23.434 23.47"><g transform="translate(0 0)"><path d="M13.392,7.377a6.017,6.017,0,1,0,6.016,6.016,6.015,6.015,0,0,0-6.016-6.016Zm0,9.925A3.908,3.908,0,1,1,17.3,13.394,3.909,3.909,0,0,1,13.392,17.3Z" transform="translate(-1.684 -1.688)"/><circle cx="1.403" cy="1.403" r="1.403" transform="translate(16.56 4.065)"/><path d="M25.815,7.047a5.993,5.993,0,0,0-3.426-3.425,8.6,8.6,0,0,0-2.845-.547C18.291,3.021,17.894,3,14.716,3s-3.585,0-4.828.07a8.529,8.529,0,0,0-2.842.547A5.985,5.985,0,0,0,3.62,7.047a8.569,8.569,0,0,0-.545,2.845C3.019,11.143,3,11.54,3,14.719s0,3.582.073,4.828a8.583,8.583,0,0,0,.545,2.846,6,6,0,0,0,3.428,3.425,8.568,8.568,0,0,0,2.843.586c1.253.055,1.65.072,4.828.072s3.585,0,4.828-.072a8.608,8.608,0,0,0,2.845-.545,6,6,0,0,0,3.426-3.426,8.569,8.569,0,0,0,.545-2.845c.056-1.252.073-1.649.073-4.828s0-3.582-.073-4.828A8.564,8.564,0,0,0,25.815,7.047Zm-1.585,12.4a6.563,6.563,0,0,1-.4,2.2A3.887,3.887,0,0,1,21.6,23.874a6.487,6.487,0,0,1-2.173.4c-1.236.057-1.585.072-4.755.072s-3.5,0-4.756-.072a6.454,6.454,0,0,1-2.172-.4A3.884,3.884,0,0,1,5.5,21.647a6.612,6.612,0,0,1-.4-2.172c-.056-1.236-.069-1.585-.069-4.755s0-3.5.069-4.756a6.555,6.555,0,0,1,.4-2.2A3.886,3.886,0,0,1,7.741,5.541a6.518,6.518,0,0,1,2.172-.4c1.238-.056,1.585-.072,4.756-.072s3.5,0,4.755.072a6.455,6.455,0,0,1,2.173.4,3.893,3.893,0,0,1,2.228,2.228,6.612,6.612,0,0,1,.4,2.172c.056,1.238.07,1.585.07,4.756s0,3.511-.056,4.755H24.23Z" transform="translate(-3.002 -3.005)"/></g></svg>