<svg xmlns="http://www.w3.org/2000/svg" width="30.438" height="30.485" viewBox="0 0 30.438 30.485"><path d="M15.19,7.377A7.815,7.815,0,1,0,23,15.191,7.813,7.813,0,0,0,15.19,7.377Zm0,12.891a5.076,5.076,0,1,1,5.074-5.076,5.077,5.077,0,0,1-5.074,5.076Z" transform="translate(0.017 0.013)"/><circle cx="1.822" cy="1.822" r="1.822" transform="translate(21.51 5.28)"/><path d="M32.633,8.255a7.784,7.784,0,0,0-4.45-4.449,11.166,11.166,0,0,0-3.695-.71c-1.628-.071-2.143-.091-6.271-.091s-4.657,0-6.271.091a11.078,11.078,0,0,0-3.691.71A7.774,7.774,0,0,0,3.8,8.255,11.13,11.13,0,0,0,3.1,11.95C3.024,13.576,3,14.091,3,18.22s0,4.653.095,6.271a11.148,11.148,0,0,0,.708,3.7,7.791,7.791,0,0,0,4.452,4.449,11.128,11.128,0,0,0,3.693.761c1.628.071,2.143.093,6.271.093s4.657,0,6.271-.093a11.181,11.181,0,0,0,3.695-.708,7.8,7.8,0,0,0,4.45-4.45,11.13,11.13,0,0,0,.708-3.695c.073-1.626.095-2.142.095-6.271s0-4.653-.095-6.271A11.124,11.124,0,0,0,32.633,8.255ZM30.575,24.366a8.524,8.524,0,0,1-.526,2.853,5.049,5.049,0,0,1-2.894,2.892,8.426,8.426,0,0,1-2.823.526c-1.606.074-2.059.093-6.176.093s-4.542,0-6.178-.093a8.383,8.383,0,0,1-2.821-.526,5.045,5.045,0,0,1-2.905-2.892A8.588,8.588,0,0,1,5.727,24.4c-.073-1.606-.09-2.059-.09-6.176s0-4.54.09-6.178a8.515,8.515,0,0,1,.526-2.851A5.047,5.047,0,0,1,9.158,6.3a8.467,8.467,0,0,1,2.821-.526c1.607-.073,2.059-.093,6.178-.093s4.542,0,6.176.093a8.384,8.384,0,0,1,2.823.526,5.056,5.056,0,0,1,2.894,2.894,8.588,8.588,0,0,1,.526,2.821c.073,1.607.091,2.059.091,6.178s0,4.56-.073,6.176h-.019Z" transform="translate(-3.002 -3.005)"/></svg>