<svg xmlns="http://www.w3.org/2000/svg" width="18.733" height="18.762" viewBox="0 0 18.733 18.762"><path d="M12.185,7.377a4.81,4.81,0,1,0,4.809,4.809,4.809,4.809,0,0,0-4.809-4.809Zm0,7.934a3.124,3.124,0,1,1,3.123-3.124,3.125,3.125,0,0,1-3.123,3.124Z" transform="translate(-2.826 -2.829)"/><circle cx="1.121" cy="1.121" r="1.121" transform="translate(13.238 3.25)"/><path d="M21.239,6.236A4.791,4.791,0,0,0,18.5,3.5a6.872,6.872,0,0,0-2.274-.437c-1-.044-1.319-.056-3.859-.056s-2.866,0-3.859.056A6.818,6.818,0,0,0,6.235,3.5,4.785,4.785,0,0,0,3.5,6.236,6.85,6.85,0,0,0,3.06,8.51C3.016,9.511,3,9.828,3,12.369s0,2.864.058,3.859A6.861,6.861,0,0,0,3.5,18.5a4.8,4.8,0,0,0,2.74,2.738,6.849,6.849,0,0,0,2.273.468c1,.044,1.319.057,3.859.057s2.866,0,3.859-.057a6.881,6.881,0,0,0,2.274-.436,4.8,4.8,0,0,0,2.739-2.739,6.85,6.85,0,0,0,.436-2.274c.045-1,.058-1.318.058-3.859s0-2.864-.058-3.859A6.846,6.846,0,0,0,21.239,6.236Zm-1.267,9.916a5.246,5.246,0,0,1-.324,1.756,3.107,3.107,0,0,1-1.781,1.78,5.186,5.186,0,0,1-1.737.324c-.988.046-1.267.057-3.8.057s-2.8,0-3.8-.057a5.159,5.159,0,0,1-1.736-.324A3.1,3.1,0,0,1,5,17.908a5.285,5.285,0,0,1-.324-1.736c-.045-.988-.055-1.267-.055-3.8s0-2.794.055-3.8A5.24,5.24,0,0,1,5,6.813,3.106,3.106,0,0,1,6.791,5.032a5.211,5.211,0,0,1,1.736-.324c.989-.045,1.267-.057,3.8-.057s2.8,0,3.8.057a5.16,5.16,0,0,1,1.737.324,3.112,3.112,0,0,1,1.781,1.781,5.285,5.285,0,0,1,.324,1.736c.045.989.056,1.267.056,3.8s0,2.807-.045,3.8h-.011Z" transform="translate(-3.002 -3.005)"/></svg>